<svg width="73" height="258" viewBox="0 0 73 258" fill="none" xmlns="http://www.w3.org/2000/svg">
<path d="M2.27986 258C2.08061 257.998 1.88219 257.974 1.68813 257.929C1.10519 257.771 0.608762 257.391 0.306786 256.871C0.00480981 256.352 -0.078288 255.735 0.0755259 255.155L68.5133 1.66782C68.6809 1.09386 69.0659 0.606651 69.5877 0.308417C70.1095 0.0101821 70.7274 -0.0759113 71.3117 0.068282C71.8957 0.224664 72.3934 0.60471 72.6953 1.12492C72.9972 1.64512 73.0788 2.263 72.922 2.84283L4.48334 256.321C4.35198 256.802 4.06524 257.226 3.66718 257.53C3.26912 257.833 2.78173 257.998 2.27986 258Z" fill="#D32F2F"/>
</svg>
